<?xml version="1.0" encoding="UTF-8"?>
<svg version="1.1" xmlns="http://www.w3.org/2000/svg" width="1152" height="1152">
<path d="M0 0 C380.16 0 760.32 0 1152 0 C1152 380.16 1152 760.32 1152 1152 C771.84 1152 391.68 1152 0 1152 C0 771.84 0 391.68 0 0 Z " fill="#FEFEFE" transform="translate(0,0)"/>
<path d="M0 0 C2.10949423 0.71875541 2.10949423 0.71875541 5.22241211 0.96679688 C9.57791022 1.70501689 13.13743927 3.23644068 17.17553711 4.99414062 C20.07999614 6.25528731 23.01063914 7.4353151 25.95678711 8.59570312 C26.84470947 8.94560303 27.73263184 9.29550293 28.64746094 9.65600586 C30.41965396 10.3522875 32.19289877 11.04589927 33.96728516 11.73657227 C38.19455998 13.40643866 42.0596143 15.14494731 45.90991211 17.59179688 C48.10121745 18.28759142 48.10121745 18.28759142 49.90991211 18.59179688 C49.90991211 19.25179687 49.90991211 19.91179687 49.90991211 20.59179688 C50.55831055 20.65496094 51.20670898 20.718125 51.87475586 20.78320312 C56.20652939 21.93722773 59.66903067 24.20156214 63.47241211 26.52929688 C64.97306219 27.43532558 66.47434382 28.34030925 67.97631836 29.24414062 C68.63575439 29.64624756 69.29519043 30.04835449 69.97460938 30.46264648 C71.91585455 31.59526398 73.88933101 32.60892548 75.90991211 33.59179688 C75.90991211 34.25179687 75.90991211 34.91179687 75.90991211 35.59179688 C76.98885742 35.97464844 76.98885742 35.97464844 78.08959961 36.36523438 C81.10203594 37.67535211 83.40831201 39.24880695 86.03491211 41.21679688 C89.81739033 44.03461622 93.62256282 46.80436809 97.47241211 49.52929688 C102.11852485 52.90467792 106.3763461 56.56520619 110.59350586 60.45898438 C112.57817147 62.28634934 114.59991107 64.03857412 116.65991211 65.77929688 C120.61121606 69.22257603 124.32248759 72.89536583 128.03491211 76.59179688 C128.91421387 77.46421021 128.91421387 77.46421021 129.8112793 78.35424805 C136.06745771 84.6324801 141.59889184 91.39791709 147.07788086 98.35742188 C148.77866203 100.51618282 148.77866203 100.51618282 150.35742188 102.00268555 C151.97363268 103.65702052 153.25717517 105.35741074 154.58178711 107.25195312 C155.07791504 107.95819824 155.57404297 108.66444336 156.08520508 109.39208984 C156.6048584 110.13861816 157.12451172 110.88514648 157.65991211 111.65429688 C158.74062162 113.19988353 159.82135068 114.74545653 160.90209961 116.29101562 C161.42126953 117.03528809 161.94043945 117.77956055 162.4753418 118.54638672 C163.65135307 120.22314343 164.84465145 121.88776332 166.04272461 123.54882812 C170.20334552 129.32332218 173.61847371 135.28676877 176.90991211 141.59179688 C177.80254569 143.27570648 178.69583445 144.95926886 179.58959961 146.64257812 C180.57191158 148.50036501 181.55367691 150.35844104 182.53491211 152.21679688 C183.00251953 153.09956299 183.47012695 153.9823291 183.9519043 154.8918457 C192.58713256 171.3433384 192.58713256 171.3433384 191.90991211 176.59179688 C192.56991211 176.59179688 193.22991211 176.59179688 193.90991211 176.59179688 C199.9421036 193.91830433 205.21470113 211.28809299 208.28491211 229.40429688 C208.536521 230.87987061 208.536521 230.87987061 208.79321289 232.38525391 C209.73783789 238.33527047 209.90991211 243.40193853 209.90991211 249.59179688 C176.57991211 249.59179688 143.24991211 249.59179688 108.90991211 249.59179688 C108.90991211 247.59179688 108.90991211 247.59179688 110.13256836 246.35742188 C110.7397168 245.85726563 111.34686523 245.35710937 111.97241211 244.84179688 C116.24329798 241.21801492 120.33024061 237.42707106 124.40991211 233.59179688 C132.42575369 226.07694539 132.42575369 226.07694539 136.47241211 222.52929688 C137.06022461 222.01238281 137.64803711 221.49546875 138.25366211 220.96289062 C139.90991211 219.59179687 139.90991211 219.59179687 141.75366211 218.31445312 C143.70119507 217.00617668 143.70119507 217.00617668 145.90991211 214.59179688 C145.61571536 208.81818567 143.76380998 203.57360151 141.84741211 198.15429688 C141.54013184 197.28119873 141.23285156 196.40810059 140.91625977 195.50854492 C137.89808753 187.17253227 134.10759972 179.38750244 129.90991211 171.59179688 C129.4806543 170.76808594 129.05139648 169.944375 128.60913086 169.09570312 C124.8213207 162.0016944 120.31432477 155.31266271 115.90991211 148.59179688 C115.26022461 147.59664062 114.61053711 146.60148438 113.94116211 145.57617188 C111.7174636 142.3090456 109.38111045 139.16097359 106.97241211 136.02929688 C106.55540039 135.47822266 106.13838867 134.92714844 105.70874023 134.359375 C103.00010981 130.8302012 100.09377921 127.71099168 96.90991211 124.59179688 C95.21532479 122.72319979 93.52817837 120.84783543 91.84741211 118.96679688 C78.06665102 103.8341109 62.16024352 91.24880393 44.4465332 81.01757812 C42.57183519 79.9241779 40.73611015 78.76440825 38.90991211 77.59179688 C38.90991211 76.93179688 38.90991211 76.27179688 38.90991211 75.59179688 C38.24088867 75.50285156 37.57186523 75.41390625 36.88256836 75.32226562 C33.07986016 74.38782879 29.80143845 72.69486083 26.34741211 70.90429688 C25.64213379 70.54634033 24.93685547 70.18838379 24.21020508 69.81958008 C20.97818355 68.1779474 17.75935702 66.51310954 14.54663086 64.83398438 C9.20134009 62.07467734 4.11180228 59.86793878 -1.69555664 58.29492188 C-4.07638503 57.59582055 -6.25391141 56.70637628 -8.52758789 55.71679688 C-51.73358036 37.88575236 -111.95318637 37.35000908 -156.09008789 51.59179688 C-158.09312122 52.58570708 -160.09331018 53.58537808 -162.09008789 54.59179688 C-164.03720486 55.10756297 -165.98573755 55.62058733 -167.94848633 56.07324219 C-171.76826147 56.99813986 -175.48360989 58.23975099 -179.21508789 59.46679688 C-179.98723633 59.71042969 -180.75938477 59.9540625 -181.55493164 60.20507812 C-186.29152966 61.76242637 -189.9776707 63.70547839 -194.09008789 66.59179688 C-196.47680664 67.64648438 -196.47680664 67.64648438 -198.77758789 68.46679688 C-208.39029881 72.1804742 -216.9912556 77.6689499 -225.6081543 83.25244141 C-226.26090332 83.66993652 -226.91365234 84.08743164 -227.58618164 84.51757812 C-228.45521118 85.08085815 -228.45521118 85.08085815 -229.34179688 85.65551758 C-231.23498935 86.66939736 -232.99417659 87.15595076 -235.09008789 87.59179688 C-235.09008789 88.25179687 -235.09008789 88.91179687 -235.09008789 89.59179688 C-236.55102539 90.88085938 -236.55102539 90.88085938 -238.46508789 92.21679688 C-239.09157227 92.6628125 -239.71805664 93.10882813 -240.36352539 93.56835938 C-242.09008789 94.59179688 -242.09008789 94.59179688 -244.09008789 94.59179688 C-244.09008789 95.25179687 -244.09008789 95.91179687 -244.09008789 96.59179688 C-245.98852539 98.31835938 -245.98852539 98.31835938 -248.46508789 100.21679688 C-249.68325195 101.16425781 -249.68325195 101.16425781 -250.92602539 102.13085938 C-253.09008789 103.59179688 -253.09008789 103.59179688 -255.09008789 103.59179688 C-255.42008789 104.58179688 -255.75008789 105.57179688 -256.09008789 106.59179688 C-257.58523263 107.87714858 -259.13828908 109.09553494 -260.71508789 110.27929688 C-272.88291658 120.01039524 -282.93526384 132.05226675 -292.09008789 144.59179688 C-292.84290039 145.5946875 -293.59571289 146.59757813 -294.37133789 147.63085938 C-298.31124152 152.89919116 -298.31124152 152.89919116 -301.58618164 158.58789062 C-303.52231328 162.45512499 -306.00433827 165.754136 -308.56665039 169.22460938 C-309.98683456 171.43135709 -310.65342222 173.03081173 -311.09008789 175.59179688 C-311.75008789 175.59179688 -312.41008789 175.59179688 -313.09008789 175.59179688 C-313.35821289 176.41679687 -313.62633789 177.24179687 -313.90258789 178.09179688 C-315.21533711 181.96095248 -316.64110073 185.77173981 -318.09008789 189.59179688 C-318.75008789 189.59179688 -319.41008789 189.59179688 -320.09008789 189.59179688 C-320.09008789 190.91179687 -320.09008789 192.23179687 -320.09008789 193.59179688 C-308.47621172 193.69287719 -296.86347884 193.74003413 -285.24914455 193.71876717 C-279.85567358 193.71057675 -274.4635601 193.72080599 -269.0703125 193.7734375 C-263.86310378 193.82357075 -258.65793711 193.82491772 -253.45060921 193.79275131 C-251.46630514 193.78900634 -249.48188746 193.8027022 -247.49783134 193.83429337 C-236.77403984 194.43067685 -236.77403984 194.43067685 -227.35079956 190.38542175 C-225.55335624 187.8425933 -224.29574334 185.4525823 -223.09008789 182.59179688 C-221.85774645 180.93270015 -220.61332443 179.28222073 -219.34008789 177.65429688 C-218.78836914 176.94402344 -218.23665039 176.23375 -217.66821289 175.50195312 C-216.21400782 173.74178907 -214.80762956 172.09700509 -213.09008789 170.59179688 C-212.43008789 170.59179688 -211.77008789 170.59179688 -211.09008789 170.59179688 C-211.09008789 169.93179688 -211.09008789 169.27179688 -211.09008789 168.59179688 C-210.43008789 168.59179688 -209.77008789 168.59179688 -209.09008789 168.59179688 C-209.09008789 167.93179688 -209.09008789 167.27179688 -209.09008789 166.59179688 C-207.41040039 164.86523437 -207.41040039 164.86523437 -205.21508789 162.96679688 C-204.49579102 162.33515625 -203.77649414 161.70351563 -203.03540039 161.05273438 C-201.09008789 159.59179688 -201.09008789 159.59179688 -199.09008789 159.59179688 C-199.09008789 158.93179688 -199.09008789 158.27179688 -199.09008789 157.59179688 C-195.27551074 154.66385117 -191.14676068 152.1708206 -187.09008789 149.59179688 C-186.0343457 148.91246094 -184.97860352 148.233125 -183.89086914 147.53320312 C-172.09915608 140.0926757 -159.58690982 133.24996095 -146.09008789 129.52929688 C-144.35758789 129.04783203 -144.35758789 129.04783203 -142.59008789 128.55664062 C-141.43508789 128.23824219 -140.28008789 127.91984375 -139.09008789 127.59179688 C-137.99825195 127.264375 -136.90641602 126.93695313 -135.78149414 126.59960938 C-131.23230634 125.3576089 -126.65402521 124.43260275 -122.02758789 123.52929688 C-121.15553711 123.35591797 -120.28348633 123.18253906 -119.38500977 123.00390625 C-116.95485885 122.52376288 -114.52518907 122.04620084 -112.09008789 121.59179688 C-111.14625244 121.41237549 -110.20241699 121.2329541 -109.22998047 121.0480957 C-103.14887395 120.16437064 -96.97556407 120.3469332 -90.84008789 120.34179688 C-90.1194516 120.34112213 -89.39881531 120.34044739 -88.65634155 120.3397522 C-77.51038902 120.35633774 -66.96216803 121.06684039 -56.09008789 123.59179688 C-54.31555993 123.97169298 -52.54080716 124.35054003 -50.76586914 124.72851562 C-41.95736622 126.66229721 -33.5721194 128.76900399 -25.36743164 132.57617188 C-23.27421802 133.50968052 -21.32619774 134.11668808 -19.09008789 134.59179688 C-19.09008789 135.25179687 -19.09008789 135.91179687 -19.09008789 136.59179688 C-18.4055957 136.69363281 -17.72110352 136.79546875 -17.01586914 136.90039062 C-13.50739163 137.72949679 -10.53253263 139.10902008 -7.27758789 140.65429688 C-6.11614258 141.20214844 -4.95469727 141.75 -3.75805664 142.31445312 C-2.87762695 142.73597656 -1.99719727 143.1575 -1.09008789 143.59179688 C-1.09008789 144.25179687 -1.09008789 144.91179687 -1.09008789 145.59179688 C-0.45071289 145.81867188 0.18866211 146.04554688 0.84741211 146.27929688 C6.90520463 148.87549367 12.43222381 151.6807839 16.90991211 156.59179688 C20.56982123 159.96830595 24.22131228 163.20135602 28.40991211 165.90429688 C32.36430193 168.63642075 35.01820021 172.23847899 37.91772461 176.02929688 C40.28220827 179.07067194 42.83828665 181.88942632 45.46459961 184.70507812 C47.13006709 186.87918838 47.93688754 189.04380955 48.90991211 191.59179688 C45.25009006 195.30094267 41.58383363 199.00355865 37.91137695 202.70019531 C36.66217509 203.95947401 35.41477155 205.22053923 34.16918945 206.48339844 C32.38170136 208.295061 30.58790984 210.10026527 28.79272461 211.90429688 C28.23432892 212.47301514 27.67593323 213.0417334 27.10061646 213.62768555 C25.74115326 214.98754338 24.32984603 216.2952086 22.90991211 217.59179688 C22.24991211 217.59179688 21.58991211 217.59179688 20.90991211 217.59179688 C20.90991211 218.25179687 20.90991211 218.91179687 20.90991211 219.59179688 C20.24991211 219.59179688 19.58991211 219.59179688 18.90991211 219.59179688 C18.57991211 220.58179688 18.24991211 221.57179688 17.90991211 222.59179688 C17.24991211 222.59179688 16.58991211 222.59179688 15.90991211 222.59179688 C15.68303711 223.14867187 15.45616211 223.70554687 15.22241211 224.27929688 C13.53441175 227.25339275 11.44314694 229.31188553 8.90991211 231.59179688 C8.24991211 231.59179688 7.58991211 231.59179688 6.90991211 231.59179688 C6.90991211 232.25179687 6.90991211 232.91179687 6.90991211 233.59179688 C6.24991211 233.59179688 5.58991211 233.59179688 4.90991211 233.59179688 C4.57991211 234.58179688 4.24991211 235.57179688 3.90991211 236.59179688 C3.24991211 236.59179688 2.58991211 236.59179688 1.90991211 236.59179688 C1.68303711 237.14867187 1.45616211 237.70554687 1.22241211 238.27929688 C-0.46558825 241.25339275 -2.55685306 243.31188553 -5.09008789 245.59179688 C-5.75008789 245.59179688 -6.41008789 245.59179688 -7.09008789 245.59179688 C-7.09008789 246.25179688 -7.09008789 246.91179687 -7.09008789 247.59179688 C-7.75008789 247.59179688 -8.41008789 247.59179688 -9.09008789 247.59179688 C-9.35821289 248.23117187 -9.62633789 248.87054687 -9.90258789 249.52929688 C-11.09008789 251.59179688 -11.09008789 251.59179688 -14.09008789 252.59179688 C-14.09008789 253.25179688 -14.09008789 253.91179687 -14.09008789 254.59179688 C-16.46508789 257.21679688 -16.46508789 257.21679688 -19.09008789 259.59179688 C-19.75008789 259.59179688 -20.41008789 259.59179688 -21.09008789 259.59179688 C-21.09008789 260.25179688 -21.09008789 260.91179687 -21.09008789 261.59179688 C-21.75008789 261.59179688 -22.41008789 261.59179688 -23.09008789 261.59179688 C-23.42008789 262.58179688 -23.75008789 263.57179688 -24.09008789 264.59179688 C-24.75008789 264.59179688 -25.41008789 264.59179688 -26.09008789 264.59179688 C-26.09008789 265.25179688 -26.09008789 265.91179687 -26.09008789 266.59179688 C-26.75008789 266.59179688 -27.41008789 266.59179688 -28.09008789 266.59179688 C-28.09008789 267.25179688 -28.09008789 267.91179687 -28.09008789 268.59179688 C-29.66430664 270.14257813 -29.66430664 270.14257813 -31.77758789 271.90429688 C-35.05763613 274.65311319 -38.07405281 277.55532907 -41.09008789 280.59179688 C-69.75675456 309.25846354 -98.42342122 337.92513021 -127.09008789 366.59179688 C-127.97782394 367.48018753 -128.86556 368.36857819 -129.78019714 369.28388977 C-131.86873044 371.37062952 -133.9700207 373.44308311 -136.07836914 375.50976562 C-137.51987527 376.93284154 -138.96127937 378.35602081 -140.40258789 379.77929688 C-141.5134375 380.86500977 -141.5134375 380.86500977 -142.64672852 381.97265625 C-143.69570313 383.01196289 -143.69570313 383.01196289 -144.76586914 384.07226562 C-145.40435791 384.70028076 -146.04284668 385.3282959 -146.70068359 385.9753418 C-148.30736715 387.48932993 -148.30736715 387.48932993 -148.09008789 389.59179688 C-142.52978509 392.9417077 -137.01228692 395.5130927 -130.86352539 397.59960938 C-128.09008789 398.59179688 -128.09008789 398.59179688 -124.75415039 400.07226562 C-107.01173862 407.43025942 -85.6633797 407.81734013 -67.09008789 403.59179688 C-65.86032227 403.31207031 -64.63055664 403.03234375 -63.36352539 402.74414062 C-55.49242502 400.8443221 -48.32251363 398.20800974 -41.09008789 394.59179688 C-40.14907227 394.16253906 -39.20805664 393.73328125 -38.23852539 393.29101562 C-28.23110642 388.60416373 -15.12037449 381.29884568 -8.40258789 372.34179688 C-7.96946289 371.76429688 -7.53633789 371.18679688 -7.09008789 370.59179688 C-6.43008789 370.59179688 -5.77008789 370.59179688 -5.09008789 370.59179688 C-4.8696582 370.08003906 -4.64922852 369.56828125 -4.42211914 369.04101562 C-2.53772911 365.57616944 -0.15007729 362.54776698 2.22241211 359.40429688 C7.84514648 351.84168269 12.34532678 344.32503094 15.90991211 335.59179688 C16.23991211 334.93179687 16.56991211 334.27179688 16.90991211 333.59179688 C80.26991211 333.59179688 143.62991211 333.59179688 208.90991211 333.59179688 C208.90991211 347.31509498 208.674311 356.56484589 204.85302734 369.07397461 C203.48707254 373.55184517 202.29450091 378.01642635 201.28491211 382.59179688 C199.52376155 390.53676262 196.80793681 398.00173219 193.90991211 405.59179688 C193.24991211 405.59179688 192.58991211 405.59179688 191.90991211 405.59179688 C191.76553711 406.89117188 191.62116211 408.19054687 191.47241211 409.52929688 C189.97382744 417.3129904 185.68732563 424.02985315 181.81787109 430.84936523 C180.76991223 432.7485301 180.76991223 432.7485301 179.90991211 435.59179688 C179.24991211 435.59179688 178.58991211 435.59179688 177.90991211 435.59179688 C177.90991211 436.91179687 177.90991211 438.23179687 177.90991211 439.59179688 C177.24991211 439.59179688 176.58991211 439.59179688 175.90991211 439.59179688 C175.67014648 440.43613281 175.43038086 441.28046875 175.18334961 442.15039062 C173.73843717 446.0552 171.82399169 449.20197587 169.53491211 452.65429688 C169.14819336 453.25306641 168.76147461 453.85183594 168.36303711 454.46875 C166.05372254 458.00634095 163.56954381 461.30500312 160.90991211 464.59179688 C160.20105317 465.90318592 159.51534759 467.22956705 158.90991211 468.59179688 C158.24991211 468.59179688 157.58991211 468.59179688 156.90991211 468.59179688 C156.24991211 470.57179688 155.58991211 472.55179688 154.90991211 474.59179688 C154.24991211 474.59179688 153.58991211 474.59179688 152.90991211 474.59179688 C152.66756836 475.15253906 152.42522461 475.71328125 152.17553711 476.29101562 C150.65640201 479.0526532 148.80095954 481.0921113 146.65991211 483.40429688 C145.8594043 484.27957031 145.05889648 485.15484375 144.23413086 486.05664062 C143.08364258 487.31154297 143.08364258 487.31154297 141.90991211 488.59179688 C140.75631766 489.87653679 139.60922352 491.16718284 138.47241211 492.46679688 C138.01995117 492.97984375 137.56749023 493.49289062 137.10131836 494.02148438 C135.81173365 495.61161597 135.81173365 495.61161597 134.88256836 497.74023438 C133.90991211 499.59179688 133.90991211 499.59179688 131.78491211 500.34179688 C130.85678711 500.46554687 130.85678711 500.46554687 129.90991211 500.59179688 C129.84803711 501.16542969 129.78616211 501.7390625 129.72241211 502.33007812 C128.56600606 505.54911228 126.61236893 506.71867355 123.90991211 508.77929688 C119.12199227 512.53722092 114.86539546 516.51954053 110.68725586 520.93945312 C108.90991211 522.59179688 108.90991211 522.59179688 106.90991211 522.59179688 C106.90991211 523.25179687 106.90991211 523.91179688 106.90991211 524.59179688 C104.98403632 526.22319625 103.06664494 527.72902913 101.03491211 529.21679688 C100.47932617 529.63703125 99.92374023 530.05726563 99.35131836 530.49023438 C95.17226499 533.59179688 95.17226499 533.59179688 92.90991211 533.59179688 C92.90991211 534.25179687 92.90991211 534.91179688 92.90991211 535.59179688 C91.91991211 535.59179688 90.92991211 535.59179688 89.90991211 535.59179688 C89.90991211 536.25179687 89.90991211 536.91179688 89.90991211 537.59179688 C87.94442729 539.11630754 85.98948848 540.48568028 83.90991211 541.84179688 C83.2636084 542.26855713 82.61730469 542.69531738 81.95141602 543.13500977 C72.67387872 549.16423787 63.03638913 554.61949306 53.44262695 560.12475586 C51.71792504 561.12376625 50.00758329 562.14789112 48.31079102 563.19360352 C45.70494209 564.71116471 43.03556621 565.69780075 40.20288086 566.71289062 C36.75538357 568.03433337 33.44198361 569.62756192 30.10913086 571.21289062 C26.39276649 572.81469358 22.6207659 574.18499697 18.81201172 575.55004883 C16.10656227 576.52120663 13.41230612 577.51857442 10.71850586 578.52148438 C-27.89415678 592.64160161 -66.40930999 595.09601538 -107.09008789 594.59179688 C-108.10844727 594.57922852 -109.12680664 594.56666016 -110.17602539 594.55371094 C-135.13292427 594.12067693 -160.57539282 589.61078192 -184.1081543 581.27587891 C-186.26249888 580.53228769 -188.42893269 579.83789254 -190.60180664 579.15039062 C-198.49623074 576.63702668 -205.9112441 573.94653329 -213.25415039 570.04882812 C-218.06165302 567.57885777 -223.07627957 565.6008761 -228.09008789 563.59179688 C-228.09008789 562.93179688 -228.09008789 562.27179687 -228.09008789 561.59179688 C-229.14196289 561.43710938 -229.14196289 561.43710938 -230.21508789 561.27929688 C-233.51053928 560.49125415 -236.1485957 559.26309926 -239.09008789 557.59179688 C-239.42008789 556.93179688 -239.75008789 556.27179687 -240.09008789 555.59179688 C-242.40262801 554.5446089 -244.73860269 553.54833323 -247.09008789 552.59179688 C-250.95449467 550.86298332 -250.95449467 550.86298332 -252.09008789 548.59179688 C-253.8042961 547.60920286 -253.8042961 547.60920286 -255.84008789 546.71679688 C-259.33644375 545.04029112 -262.10860384 543.08979703 -265.09008789 540.59179688 C-265.8493457 540.13933594 -266.60860352 539.686875 -267.39086914 539.22070312 C-280.75346848 531.15673218 -292.84156447 520.19202158 -303.65258789 509.00195312 C-306.01379986 506.66722911 -308.49877607 504.66230583 -311.09008789 502.59179688 C-312.20904659 501.41637696 -313.29441935 500.20786813 -314.34008789 498.96679688 C-317.05424052 495.78550251 -319.82893996 492.67645428 -322.65258789 489.59179688 C-326.40921531 485.42339748 -329.79452087 481.12623798 -333.09008789 476.59179688 C-334.56781628 474.63237801 -336.04710246 472.67413343 -337.52758789 470.71679688 C-348.10829353 456.58539913 -348.10829353 456.58539913 -352.09008789 448.59179688 C-353.40074388 446.3906347 -354.73486353 444.20330262 -356.09008789 442.02929688 C-362.89360815 431.08954554 -362.89360815 431.08954554 -364.02758789 428.21679688 C-365.0840458 425.42245235 -365.0840458 425.42245235 -366.98071289 422.37695312 C-369.02045905 418.83973591 -370.49821096 415.24508566 -371.90258789 411.40429688 C-372.15049072 410.73011719 -372.39839355 410.0559375 -372.65380859 409.36132812 C-375.05211616 402.79738254 -377.35564901 396.19859408 -379.64208984 389.5949707 C-379.91754639 388.79986084 -380.19300293 388.00475098 -380.47680664 387.18554688 C-380.87790649 386.02732422 -380.87790649 386.02732422 -381.28710938 384.84570312 C-382.06195637 382.67076015 -382.89041864 380.52338409 -383.73071289 378.37304688 C-384.9553556 375.13530946 -385.67128451 372.03101327 -386.15258789 368.59179688 C-386.67648493 365.1166132 -387.24364666 361.73695969 -388.15258789 358.34179688 C-390.27274834 349.86115507 -390.09008789 342.53759677 -390.09008789 333.59179688 C-357.09008789 333.59179688 -324.09008789 333.59179688 -290.09008789 333.59179688 C-295.35324579 340.96021793 -295.35324579 340.96021793 -300.09008789 343.59179688 C-302.3886525 345.53786596 -304.5438748 347.63060569 -306.71508789 349.71679688 C-311.95089875 354.69494945 -317.28685715 359.26295871 -323.07836914 363.59179688 C-325.1796711 365.44453146 -325.1796711 365.44453146 -326.08618164 367.78710938 C-326.09215784 372.07802208 -324.4811233 375.5476182 -322.84008789 379.46679688 C-322.5268457 380.24410156 -322.21360352 381.02140625 -321.89086914 381.82226562 C-320.0208151 386.43920402 -318.06380516 391.01829074 -316.09008789 395.59179688 C-315.6118457 396.75066406 -315.13360352 397.90953125 -314.64086914 399.10351562 C-313.04887538 402.68449907 -311.24185984 406.01428118 -309.27758789 409.40429688 C-308.92647949 410.01104248 -308.57537109 410.61778809 -308.21362305 411.24291992 C-307.1774039 413.02882971 -306.1349197 414.81091517 -305.09008789 416.59179688 C-304.54739258 417.51992188 -304.00469727 418.44804688 -303.44555664 419.40429688 C-298.32242733 428.05549149 -292.85976011 436.08564687 -286.40258789 443.80664062 C-284.97652874 445.5241747 -283.57483107 447.26270419 -282.21508789 449.03320312 C-276.05686379 456.96688297 -268.93282948 463.86578626 -261.74511719 470.86303711 C-260.88829346 471.70294189 -260.03146973 472.54284668 -259.14868164 473.40820312 C-258.36807373 474.16560791 -257.58746582 474.9230127 -256.78320312 475.70336914 C-255.09008789 477.59179688 -255.09008789 477.59179688 -255.09008789 479.59179688 C-254.50356445 479.69363281 -253.91704102 479.79546875 -253.31274414 479.90039062 C-250.70297637 480.71221645 -249.50349025 481.7808171 -247.52758789 483.65429688 C-230.19026882 499.33132019 -207.94172845 512.31303264 -186.05883789 520.47070312 C-183.62819898 521.38858913 -181.40388588 522.42740177 -179.09008789 523.59179688 C-176.7599788 524.26964679 -174.42648965 524.9359648 -172.09008789 525.59179688 C-170.42342122 526.25846354 -168.75675456 526.92513021 -167.09008789 527.59179688 C-164.75845411 528.26438354 -162.42488399 528.93027131 -160.09008789 529.59179688 C-158.6299591 530.08652916 -157.17169989 530.58680421 -155.71508789 531.09179688 C-149.02551925 533.33677076 -142.43004666 534.62407364 -135.41821289 535.31054688 C-132.08623766 535.71306737 -128.8284469 536.39526296 -125.54711914 537.09179688 C-124.73629883 537.25679687 -123.92547852 537.42179688 -123.09008789 537.59179688 C-122.28482666 537.76146973 -121.47956543 537.93114258 -120.64990234 538.10595703 C-115.65762079 538.78729852 -110.70975975 538.81432417 -105.67602539 538.86523438 C-104.56053818 538.87758118 -103.44505096 538.88992798 -102.29576111 538.90264893 C-98.68550937 538.9349159 -95.07545865 538.95371463 -91.46508789 538.96679688 C-90.24300629 538.97169128 -89.02092468 538.97658569 -87.7618103 538.98162842 C-70.61343323 539.01015186 -54.42664242 538.39817112 -37.72924805 534.21386719 C-34.91828106 533.55130069 -32.10831824 533.07759419 -29.25805664 532.61523438 C-25.06006521 531.8833133 -21.84704008 530.65136347 -18.09008789 528.59179688 C-15.95877071 527.93826407 -13.81119321 527.33611026 -11.65258789 526.77929688 C-2.23169993 524.17733734 6.92502373 520.75411324 15.59741211 516.21679688 C18.90991211 514.59179688 18.90991211 514.59179688 22.90991211 514.59179688 C22.90991211 513.93179688 22.90991211 513.27179687 22.90991211 512.59179688 C24.05266602 512.04652344 24.05266602 512.04652344 25.21850586 511.49023438 C31.01599123 508.66748869 36.45625615 505.71271382 41.74975586 502.03320312 C44.64857877 500.09890718 47.68228367 498.47733617 50.76928711 496.86523438 C53.35801339 495.32522568 55.57739502 493.49703606 57.90991211 491.59179688 C59.29823242 490.55925781 59.29823242 490.55925781 60.71459961 489.50585938 C67.94642785 484.11419099 74.58314501 478.3462762 81.05981445 472.06298828 C81.66390137 471.48210449 82.26798828 470.9012207 82.89038086 470.30273438 C83.4255835 469.7798584 83.96078613 469.25698242 84.51220703 468.71826172 C85.90991211 467.59179688 85.90991211 467.59179688 87.90991211 467.59179688 C88.2830957 466.72167969 88.2830957 466.72167969 88.66381836 465.83398438 C90.08908279 463.26940199 91.69965035 461.713089 93.84741211 459.71679688 C104.12666316 449.63522373 112.19155618 437.68281435 119.90991211 425.59179688 C120.46291992 424.73199219 121.01592773 423.8721875 121.58569336 422.98632812 C125.85885485 416.11010869 129.37650973 408.84398066 132.93041992 401.57910156 C134.28715458 398.82640462 135.67922582 396.09176786 137.07348633 393.35791016 C138.03250587 391.42444988 138.03250587 391.42444988 138.90991211 388.59179688 C127.40913124 388.51394611 115.90933835 388.48449318 104.40830803 388.51663876 C99.06761902 388.5300493 93.72801983 388.52685849 88.38745117 388.4855957 C83.23219048 388.44637761 78.07864817 388.4509408 72.92337418 388.48571968 C70.95780732 388.49131386 68.99213025 388.4811947 67.02672958 388.45503044 C56.57658359 387.81344133 56.57658359 387.81344133 47.40948486 391.66873169 C45.928651 393.9351742 44.94425342 396.10483614 43.90991211 398.59179688 C43.24991211 398.59179688 42.58991211 398.59179688 41.90991211 398.59179688 C41.56959961 399.39617187 41.56959961 399.39617187 41.22241211 400.21679688 C39.45421122 403.41639849 37.37321008 405.88216911 34.90991211 408.59179688 C34.24991211 408.59179688 33.58991211 408.59179688 32.90991211 408.59179688 C32.68303711 409.15382813 32.45616211 409.71585938 32.22241211 410.29492188 C30.54061576 413.23806548 28.43882101 415.09224419 25.90991211 417.34179688 C25.02303711 418.14101563 24.13616211 418.94023438 23.22241211 419.76367188 C20.90991211 421.59179688 20.90991211 421.59179688 18.90991211 421.59179688 C18.90991211 422.25179688 18.90991211 422.91179687 18.90991211 423.59179688 C13.4981474 427.59179688 13.4981474 427.59179688 10.90991211 427.59179688 C10.73459961 428.15640625 10.55928711 428.72101563 10.37866211 429.30273438 C8.15664276 432.76577518 4.94493848 434.2345391 1.40991211 436.21679688 C-3.64326199 438.98487194 -3.64326199 438.98487194 -8.09008789 442.59179688 C-9.5262446 443.24693609 -10.98963188 443.8432416 -12.46508789 444.40429688 C-16.33141145 445.89860871 -20.1538703 447.46199988 -23.96508789 449.09179688 C-29.16008211 451.27490729 -34.41837979 453.0951733 -39.78930664 454.79492188 C-42.02585728 455.38198406 -42.02585728 455.38198406 -43.09008789 456.59179688 C-44.7487621 456.94426515 -46.41782754 457.24826423 -48.09008789 457.52929688 C-51.60482382 458.13544181 -55.06466946 458.80286372 -58.52758789 459.65429688 C-99.21511943 468.79144757 -145.75471639 458.63210676 -180.65258789 436.86132812 C-198.00102697 425.60948539 -217.55951405 409.64420917 -228.09008789 391.59179688 C-227.54818184 387.35360624 -225.08129142 385.37922012 -222.09008789 382.59179688 C-220.66782032 381.20167095 -219.25143501 379.80550865 -217.84008789 378.40429688 C-216.81141602 377.39302734 -216.81141602 377.39302734 -215.76196289 376.36132812 C-214.01559678 374.68380692 -214.01559678 374.68380692 -213.09008789 372.59179688 C-212.43008789 372.59179688 -211.77008789 372.59179688 -211.09008789 372.59179688 C-211.09008789 371.93179687 -211.09008789 371.27179688 -211.09008789 370.59179688 C-209.66777772 369.4065384 -208.24124675 368.22595615 -206.79321289 367.07226562 C-205.05984282 365.56550587 -203.6678424 363.99282918 -202.21508789 362.21679688 C-200.10207275 359.67244273 -197.92082282 357.48563028 -195.40258789 355.34179688 C-191.90134932 352.36000989 -188.59484309 349.21339752 -185.34008789 345.96679688 C-183.98657227 344.61714844 -183.98657227 344.61714844 -182.60571289 343.24023438 C-180.05137558 340.63860065 -180.05137558 340.63860065 -177.88696289 337.75585938 C-177.29399414 337.04171875 -176.70102539 336.32757812 -176.09008789 335.59179688 C-175.43008789 335.59179688 -174.77008789 335.59179688 -174.09008789 335.59179688 C-174.09008789 334.93179687 -174.09008789 334.27179688 -174.09008789 333.59179688 C-172.79689598 332.31916714 -172.79689598 332.31916714 -170.90219116 330.77378845 C-164.62533507 325.42884094 -158.90483527 319.52124383 -153.09643555 313.67993164 C-151.79825671 312.37819143 -150.49983912 311.07668929 -149.20120239 309.77540588 C-146.41924673 306.98693065 -143.63880854 304.19695437 -140.85951614 301.40582466 C-136.46767545 296.99562442 -132.07143114 292.58983166 -127.67440796 288.18479919 C-115.17687751 275.66316239 -102.6853439 263.13555296 -90.19799805 250.60375977 C-83.29074502 243.67199891 -76.37993442 236.74380485 -69.46525228 229.81945461 C-65.0895596 225.43720638 -60.71841851 221.05048276 -56.35055089 216.6604358 C-53.64184192 213.94004027 -50.92900317 211.22379332 -48.21494675 208.50873375 C-46.95299726 207.24462785 -45.69278074 205.97878932 -44.43438721 204.71114349 C-42.72346691 202.98812635 -41.00658156 201.27128833 -39.28799438 199.55592346 C-38.78567185 199.04709312 -38.28334932 198.53826279 -37.76580489 198.01401335 C-34.31830336 194.59179688 -34.31830336 194.59179688 -32.09008789 194.59179688 C-32.09008789 193.60179687 -32.09008789 192.61179687 -32.09008789 191.59179688 C-33.32758789 191.22054687 -33.32758789 191.22054687 -34.59008789 190.84179688 C-38.09008789 189.59179688 -38.09008789 189.59179688 -41.52758789 187.77929688 C-47.75014299 184.60283065 -54.41527614 182.58295035 -61.09008789 180.59179688 C-62.17032227 180.26695312 -63.25055664 179.94210937 -64.36352539 179.60742188 C-89.54172194 173.14522131 -118.37331695 177.42445177 -141.21508789 189.13085938 C-142.86605034 189.96979953 -144.52770507 190.78968994 -146.21508789 191.55273438 C-162.23817467 198.82988629 -175.1548199 212.6543978 -185.34008789 226.65429688 C-185.76475342 227.23195801 -186.18941895 227.80961914 -186.62695312 228.40478516 C-189.40034649 232.29183399 -191.30588381 236.13608292 -193.09008789 240.59179688 C-194.41008789 243.56179688 -195.73008789 246.53179688 -197.09008789 249.59179688 C-260.78008789 249.59179688 -324.47008789 249.59179688 -390.09008789 249.59179688 C-390.09008789 229.96680172 -386.50993042 209.84990938 -379.09008789 191.59179688 C-378.36075287 189.64778179 -377.64429366 187.69922064 -376.92700195 185.75073242 C-369.77028598 166.37660882 -369.77028598 166.37660882 -366.53930664 161.02148438 C-365.21396407 158.79948147 -364.40744726 156.84304848 -363.59008789 154.40429688 C-360.57910061 146.56861737 -355.74327324 139.59823795 -351.26342773 132.53955078 C-350.0953406 130.60051641 -349.07448198 128.62931655 -348.09008789 126.59179688 C-347.43008789 126.59179688 -346.77008789 126.59179688 -346.09008789 126.59179688 C-345.83614258 125.87507812 -345.58219727 125.15835938 -345.32055664 124.41992188 C-343.99353942 121.36988864 -342.38679712 119.00819985 -340.40258789 116.34179688 C-339.68329102 115.375 -338.96399414 114.40820312 -338.22290039 113.41210938 C-337.51907227 112.48140625 -336.81524414 111.55070312 -336.09008789 110.59179688 C-335.53063477 109.84671875 -334.97118164 109.10164063 -334.39477539 108.33398438 C-329.61172318 102.07211408 -324.50505566 96.08334592 -319.37963867 90.1015625 C-318.21210227 88.73464748 -317.05478027 87.35902417 -315.89868164 85.98242188 C-315.2812207 85.25539063 -314.66375977 84.52835937 -314.02758789 83.77929688 C-313.50036133 83.15410156 -312.97313477 82.52890625 -312.42993164 81.88476562 C-311.09008789 80.59179688 -311.09008789 80.59179688 -309.09008789 80.59179688 C-308.88641602 80.05167969 -308.68274414 79.5115625 -308.47290039 78.95507812 C-306.532072 75.63812565 -303.8006956 73.31444284 -300.96508789 70.77929688 C-300.08711548 69.9825354 -300.08711548 69.9825354 -299.19140625 69.16967773 C-297.49733444 67.63643404 -295.79569801 66.11218472 -294.09008789 64.59179688 C-292.88932617 63.52058594 -292.88932617 63.52058594 -291.66430664 62.42773438 C-289.81860455 60.80064942 -287.95880448 59.19233774 -286.09008789 57.59179688 C-285.51387695 57.08648437 -284.93766602 56.58117187 -284.34399414 56.06054688 C-280.32602539 52.59179688 -280.32602539 52.59179688 -278.09008789 52.59179688 C-278.09008789 51.93179688 -278.09008789 51.27179688 -278.09008789 50.59179688 C-276.17602539 49.21679688 -276.17602539 49.21679688 -273.46508789 47.59179688 C-268.94030249 44.80286265 -264.62397953 41.85303388 -260.34008789 38.71679688 C-255.36846187 35.10761089 -250.29357918 31.75684191 -245.02758789 28.59179688 C-244.40851563 28.21812988 -243.78944336 27.84446289 -243.15161133 27.45947266 C-239.87603789 25.52227665 -236.63427998 23.95993758 -233.09008789 22.59179688 C-231.57659893 21.78322058 -230.07606041 20.94989368 -228.59008789 20.09179688 C-225.48888174 18.30095952 -222.41407185 16.91631568 -219.09008789 15.59179688 C-217.27092013 14.66730179 -215.45884393 13.72877127 -213.65258789 12.77929688 C-206.98899421 9.41895343 -200.14186968 6.99896965 -193.09008789 4.59179688 C-190.75614089 3.73930844 -188.42280392 2.88514795 -186.09008789 2.02929688 C-176.32371438 -1.44464807 -166.59309983 -4.44453287 -156.29711914 -5.81835938 C-153.45871594 -6.3404043 -150.80249932 -7.03710965 -148.03149414 -7.83007812 C-101.93569821 -20.58738856 -44.79012481 -15.90609759 0 0 Z " fill="#ED3F27" transform="translate(661.090087890625,286.408203125)"/>
<path d="M0 0 C-5.68496535 4.19604585 -10.507336 4.47700758 -17.4765625 4.7890625 C-23.16169464 5.12941409 -28.60166792 6.20055597 -34 8 C-42.89090636 9.44223598 -52.01598275 9.28078785 -61 9.3125 C-61.78880554 9.31611542 -62.57761108 9.31973083 -63.39031982 9.32345581 C-77.0170089 9.34841564 -89.92886321 8.00895768 -103.33349609 5.45141602 C-106.813268 4.86232077 -110.291025 4.55254834 -113.80957031 4.29882812 C-117.22507831 3.83286939 -119.93046919 2.5347654 -123 1 C-123 0.67 -123 0.34 -123 0 C-116.25 -0.125 -116.25 -0.125 -114 1 C-112.67091011 1.18045833 -111.33617957 1.32058429 -110 1.4375 C-105.75069777 1.86858863 -101.63304357 2.61354962 -97.45703125 3.5 C-96.64621094 3.665 -95.83539062 3.83 -95 4 C-94.19473877 4.16967285 -93.38947754 4.3393457 -92.55981445 4.51416016 C-87.56753664 5.19550114 -82.61966939 5.22255313 -77.5859375 5.2734375 C-76.47008774 5.28573898 -75.35423798 5.29804047 -74.20457458 5.31071472 C-70.59469193 5.34286096 -66.98499953 5.36164236 -63.375 5.375 C-61.54586563 5.38284012 -61.54586563 5.38284012 -59.67977905 5.39083862 C-44.21430013 5.42160845 -13.44674047 -4.17312635 0 0 Z " fill="#F18351" transform="translate(633,820)"/>
<path d="M0 0 C1.1811161 -0.00525696 1.1811161 -0.00525696 2.38609314 -0.01062012 C4.98453629 -0.0194113 7.5827065 -0.01359868 10.18115234 -0.00683594 C11.9866847 -0.00818307 13.79221669 -0.010124 15.5977478 -0.01263428 C19.37883971 -0.01558177 23.15983706 -0.01129893 26.94091797 -0.00195312 C31.79462495 0.00945753 36.64811114 0.00286939 41.50181007 -0.00909805 C45.22833938 -0.01631284 48.95481603 -0.01403077 52.68134689 -0.00884247 C54.47157187 -0.00750576 56.26180158 -0.00915442 58.05202103 -0.01380157 C60.54913324 -0.01886236 63.0458836 -0.01116381 65.54296875 0 C66.28690384 -0.00404846 67.03083893 -0.00809692 67.7973175 -0.01226807 C72.91355762 0.03025684 72.91355762 0.03025684 75.14208984 2.25878906 C73.09130859 2.48665365 71.04052734 2.71451823 68.98974609 2.94238281 C67.13068756 3.0776552 67.13068756 3.0776552 66.14208984 4.25878906 C63.96403265 4.35308248 61.78287705 4.37621444 59.6027832 4.37231445 C58.91988724 4.37246048 58.23699127 4.37260651 57.53340149 4.37275696 C55.2662137 4.37205783 52.99910711 4.36426546 50.73193359 4.35644531 C49.16394597 4.35458113 47.59595777 4.35315723 46.02796936 4.35215759 C41.89332482 4.34833241 37.75871519 4.33850212 33.62408447 4.32745361 C29.40808586 4.31723951 25.19208163 4.31265998 20.97607422 4.30761719 C12.69806337 4.29687985 4.42008095 4.27980343 -3.85791016 4.25878906 C-3.85791016 3.59878906 -3.85791016 2.93878906 -3.85791016 2.25878906 C-6.49791016 2.25878906 -9.13791016 2.25878906 -11.85791016 2.25878906 C-8.09540559 -0.19445249 -4.33346476 -0.02371156 0 0 Z " fill="#D73C47" transform="translate(541.85791015625,325.7412109375)"/>
<path d="M0 0 C63.36 0 126.72 0 192 0 C192 0.33 192 0.66 192 1 C129.3 1 66.6 1 2 1 C1.67 1.99 1.34 2.98 1 4 C0.34 4 -0.32 4 -1 4 C-0.67 2.68 -0.34 1.36 0 0 Z " fill="#EC543D" transform="translate(678,620)"/>
<path d="M0 0 C33 0 66 0 100 0 C98.35 2.31 96.7 4.62 95 7 C94.01 6.505 94.01 6.505 93 6 C93.33 5.01 93.66 4.02 94 3 C94.66 3 95.32 3 96 3 C96 2.34 96 1.68 96 1 C64.32 1 32.64 1 0 1 C0 0.67 0 0.34 0 0 Z " fill="#ED563F" transform="translate(271,620)"/>
<path d="M0 0 C1.1617424 -0.0033284 2.3234848 -0.0066568 3.52043152 -0.01008606 C5.96535853 -0.01513227 8.41029239 -0.0174951 10.85522461 -0.01733398 C14.60997632 -0.01953389 18.36444032 -0.03775059 22.11914062 -0.05664062 C24.49609274 -0.05957226 26.87304626 -0.06155859 29.25 -0.0625 C30.94054253 -0.07327827 30.94054253 -0.07327827 32.66523743 -0.08427429 C33.70359238 -0.08119766 34.74194733 -0.07812103 35.81176758 -0.07495117 C36.72775223 -0.07637619 37.64373688 -0.07780121 38.58747864 -0.07926941 C40.79296875 0.16796875 40.79296875 0.16796875 42.79296875 2.16796875 C40.7421875 2.39583333 38.69140625 2.62369792 36.640625 2.8515625 C34.78156646 2.98683489 34.78156646 2.98683489 33.79296875 4.16796875 C32.38660473 4.08614608 30.98429613 3.93635242 29.5859375 3.765625 C20.12338416 2.81186821 10.60730996 2.8005539 1.10546875 2.60546875 C-0.86784613 2.56219359 -2.84115355 2.51857671 -4.81445312 2.47460938 C-9.61190214 2.36845325 -14.40942867 2.26693104 -19.20703125 2.16796875 C-19.20703125 1.83796875 -19.20703125 1.50796875 -19.20703125 1.16796875 C-12.80135797 0.02236399 -6.49561295 0.00647186 0 0 Z " fill="#CC0F1D" transform="translate(574.20703125,325.83203125)"/>
<path d="M0 0 C-0.33 0.99 -0.66 1.98 -1 3 C-0.01 3.33 0.98 3.66 2 4 C-7.57 4.33 -17.14 4.66 -27 5 C-27 4.67 -27 4.34 -27 4 C-17.94914087 1.56499729 -9.40445363 -0.24113984 0 0 Z " fill="#CB1625" transform="translate(527,278)"/>
<path d="M0 0 C4.52077862 -0.05834421 9.04145953 -0.09371252 13.5625 -0.125 C15.47772461 -0.15013672 15.47772461 -0.15013672 17.43164062 -0.17578125 C23.65522259 -0.20811155 29.14953928 -0.23461206 35 2 C35 2.33 35 2.66 35 3 C23.78 3 12.56 3 1 3 C0.67 2.01 0.34 1.02 0 0 Z " fill="#DC2822" transform="translate(555,460)"/>
<path d="M0 0 C-5.74110238 4.23748033 -10.74062556 4.55679512 -17.79296875 4.82421875 C-20.42443884 4.9684528 -22.48144794 5.35872596 -25 6 C-26.74886981 6.06624507 -28.50002748 6.08552595 -30.25 6.0625 C-31.14203125 6.05347656 -32.0340625 6.04445313 -32.953125 6.03515625 C-33.62859375 6.02355469 -34.3040625 6.01195312 -35 6 C-35 5.67 -35 5.34 -35 5 C-34.16750732 4.85377197 -33.33501465 4.70754395 -32.47729492 4.55688477 C-29.38517445 4.01263875 -26.29342219 3.46635881 -23.2019043 2.91870117 C-21.86448308 2.68220892 -20.52691866 2.446525 -19.18920898 2.21166992 C-17.26508622 1.87371594 -15.34151938 1.53260161 -13.41796875 1.19140625 C-11.68196411 0.88505249 -11.68196411 0.88505249 -9.91088867 0.57250977 C-2.7153589 -0.84269759 -2.7153589 -0.84269759 0 0 Z " fill="#F18759" transform="translate(633,820)"/>
<path d="M0 0 C17.85649203 0.77904328 17.85649203 0.77904328 26 3 C23.00958252 4.73109355 20.99891839 5.2272693 17.55859375 5.046875 C16.72779297 5.00433594 15.89699219 4.96179688 15.04101562 4.91796875 C14.18185547 4.86253906 13.32269531 4.80710937 12.4375 4.75 C11.14295898 4.69005859 11.14295898 4.69005859 9.82226562 4.62890625 C3.38846261 4.25897507 3.38846261 4.25897507 0 2 C0 1.34 0 0.68 0 0 Z " fill="#CF1926" transform="translate(616,278)"/>
<path d="M0 0 C0.8046875 1.6796875 0.8046875 1.6796875 1 4 C-1.0546875 6.5078125 -1.0546875 6.5078125 -3.875 9.125 C-7.39236087 12.21842731 -7.39236087 12.21842731 -10 16 C-11.6476038 16.71247732 -13.31763529 17.37400383 -15 18 C-16.33859725 18.65603325 -17.67294976 19.32091246 -19 20 C-18.0919838 18.86800647 -17.17316174 17.74467637 -16.25 16.625 C-15.48429688 15.68527344 -15.48429688 15.68527344 -14.703125 14.7265625 C-13 13 -13 13 -10.921875 12.0234375 C-8.47288744 10.71930185 -8.14838015 9.48050113 -7 7 C-5.2734375 5.078125 -5.2734375 5.078125 -3.375 3.25 C-2.74335937 2.63640625 -2.11171875 2.0228125 -1.4609375 1.390625 C-0.73777344 0.70226562 -0.73777344 0.70226562 0 0 Z " fill="#F07D57" transform="translate(758,743)"/>
<path d="M0 0 C4.35236753 0.65944963 7.97205697 2.26381766 12 4 C14.32873375 4.68255989 16.66182791 5.35050775 19 6 C21.5 7 21.5 7 24 8 C26.33010909 8.67784992 28.66359824 9.34416793 31 10 C33.00361307 10.65572791 35.00491933 11.31875294 37 12 C37 12.33 37 12.66 37 13 C31.25 13.125 31.25 13.125 29 12 C29 11.34 29 10.68 29 10 C27.948125 9.94392578 27.948125 9.94392578 26.875 9.88671875 C20.64581749 9.45507703 15.74449422 8.41873441 10 6 C8.67219215 5.64529562 7.33981486 5.3062434 6 5 C6 4.34 6 3.68 6 3 C5.38125 2.87625 4.7625 2.7525 4.125 2.625 C2 2 2 2 0 0 Z " fill="#F18659" transform="translate(470,806)"/>
<path d="M0 0 C2.92046132 2.92046132 2.90174788 6.3778418 3.5 10.3125 C4.25178019 15.1825486 5.14445432 19.41664359 7 24 C7.1953125 26.45703125 7.1953125 26.45703125 7.125 28.8125 C7.10695313 29.60269531 7.08890625 30.39289062 7.0703125 31.20703125 C7.03550781 32.09455078 7.03550781 32.09455078 7 33 C6.34 32.67 5.68 32.34 5 32 C4.4375 29.55859375 4.4375 29.55859375 4 26.4375 C3.46916003 22.88881389 2.92232064 19.45051974 1.9375 16 C0.53199283 10.7763828 0.34061687 5.37816107 0 0 Z " fill="#EC7962" transform="translate(271,629)"/>
<path d="M0 0 C0 3.66644086 -0.67447186 4.0790955 -3.140625 6.65234375 C-4.12869141 7.69358398 -4.12869141 7.69358398 -5.13671875 8.75585938 C-5.83410156 9.47580078 -6.53148437 10.19574219 -7.25 10.9375 C-8.27287109 12.01161133 -8.27287109 12.01161133 -9.31640625 13.10742188 C-11.20090981 15.08157658 -13.09964372 17.04112992 -15 19 C-15.77859375 19.82628906 -16.5571875 20.65257812 -17.359375 21.50390625 C-19 23 -19 23 -21 23 C-18.95200842 18.39201894 -15.82009874 14.29917619 -12 11 C-11.34 11 -10.68 11 -10 11 C-10 10.34 -10 9.68 -10 9 C-9.34 9 -8.68 9 -8 9 C-8 8.34 -8 7.68 -8 7 C-6.25 5.2734375 -6.25 5.2734375 -4 3.375 C-3.2575 2.74335938 -2.515 2.11171875 -1.75 1.4609375 C-0.88375 0.73777344 -0.88375 0.73777344 0 0 Z " fill="#E45A54" transform="translate(460,446)"/>
<path d="M0 0 C6.75 -0.125 6.75 -0.125 9 1 C10.32908989 1.18045833 11.66382043 1.32058429 13 1.4375 C17.29933222 1.87366414 21.46387109 2.6396782 25.69140625 3.5234375 C28.44931427 4.09275185 31.21863662 4.56083736 34 5 C34 5.33 34 5.66 34 6 C27.88982732 6.07895849 21.94793746 5.8489606 15.875 5.1875 C15.11574219 5.11724609 14.35648438 5.04699219 13.57421875 4.97460938 C8.52647804 4.43160801 4.5725106 3.21348325 0 1 C0 0.67 0 0.34 0 0 Z " fill="#ED7644" transform="translate(510,820)"/>
<path d="M0 0 C-7.86651761 3.52877474 -15.5741044 6.16243766 -24 8 C-21.3359375 5.0234375 -21.3359375 5.0234375 -18.3125 4.8125 C-17.1678125 4.9053125 -17.1678125 4.9053125 -16 5 C-15.67 3.68 -15.34 2.36 -15 1 C-14.06027344 0.90912109 -14.06027344 0.90912109 -13.1015625 0.81640625 C-12.28429687 0.73261719 -11.46703125 0.64882813 -10.625 0.5625 C-9.81289063 0.48128906 -9.00078125 0.40007813 -8.1640625 0.31640625 C-1.96601942 -0.58980583 -1.96601942 -0.58980583 0 0 Z " fill="#EB613F" transform="translate(643,733)"/>
<path d="M0 0 C0.7578125 1.70703125 0.7578125 1.70703125 1 4 C-0.6953125 6.32421875 -0.6953125 6.32421875 -3.125 8.6875 C-3.91132812 9.47511719 -4.69765625 10.26273438 -5.5078125 11.07421875 C-8.11986747 13.09262486 -9.75659614 13.65950031 -13 14 C-8.88380164 9.08064098 -4.59589638 4.47352044 0 0 Z " fill="#E55246" transform="translate(605,503)"/>
<path d="M0 0 C0 3 0 3 -1.46875 4.80932617 C-2.1390625 5.46392822 -2.809375 6.11853027 -3.5 6.79296875 C-4.221875 7.50517578 -4.94375 8.21738281 -5.6875 8.95117188 C-6.450625 9.68916016 -7.21375 10.42714844 -8 11.1875 C-9.1446875 12.31188477 -9.1446875 12.31188477 -10.3125 13.45898438 C-12.20180839 15.31286823 -14.09775206 17.15941069 -16 19 C-16.66 18.67 -17.32 18.34 -18 18 C-15.56742104 15.37040225 -13.12811041 12.74714342 -10.6875 10.125 C-9.99720703 9.37863281 -9.30691406 8.63226563 -8.59570312 7.86328125 C-7.59506836 6.79013672 -7.59506836 6.79013672 -6.57421875 5.6953125 C-5.96151123 5.03547363 -5.34880371 4.37563477 -4.7175293 3.69580078 C-3 2 -3 2 0 0 Z " fill="#F6D4D4" transform="translate(400,396)"/>
<path d="M0 0 C-4.88740338 2.7152241 -9.21028595 3.1449595 -14.73828125 2.87890625 C-16.33833008 2.80639648 -16.33833008 2.80639648 -17.97070312 2.73242188 C-19.62489258 2.64831055 -19.62489258 2.64831055 -21.3125 2.5625 C-22.99569336 2.48418945 -22.99569336 2.48418945 -24.71289062 2.40429688 C-27.47556709 2.2749801 -30.23784918 2.14002857 -33 2 C-33 1.67 -33 1.34 -33 1 C-29.37516606 0.8295902 -25.75011226 0.66437396 -22.125 0.5 C-21.11179687 0.45230469 -20.09859375 0.40460937 -19.0546875 0.35546875 C-12.69773104 0.0702207 -6.36317946 -0.06350831 0 0 Z " fill="#E86345" transform="translate(591,692)"/>
<path d="M0 0 C0 4.9122554 -3.70856673 7.59908039 -7 11 C-11.4 15 -11.4 15 -15 15 C-15 14.34 -15 13.68 -15 13 C-13.30096977 11.48259024 -11.53927277 10.034872 -9.75 8.625 C-6.30145932 5.89718607 -3.04493931 3.17543671 0 0 Z " fill="#E65E53" transform="translate(789,517)"/>
<path d="M0 0 C0 3 0 3 -1.28515625 4.62573242 C-2.16494141 5.4819519 -2.16494141 5.4819519 -3.0625 6.35546875 C-3.69414062 6.97744141 -4.32578125 7.59941406 -4.9765625 8.24023438 C-5.64429688 8.88283203 -6.31203125 9.52542969 -7 10.1875 C-8.00160156 11.16879883 -8.00160156 11.16879883 -9.0234375 12.16992188 C-10.67578441 13.78686135 -12.33471601 15.39640491 -14 17 C-14.66 16.67 -15.32 16.34 -16 16 C-14.71937515 14.2925002 -13.38232443 12.62626404 -12 11 C-11.34 11 -10.68 11 -10 11 C-9.75507813 10.41734375 -9.51015625 9.8346875 -9.2578125 9.234375 C-7.79564126 6.63697764 -6.15259586 5.16024169 -3.875 3.25 C-3.15054687 2.63640625 -2.42609375 2.0228125 -1.6796875 1.390625 C-0.84824219 0.70226562 -0.84824219 0.70226562 0 0 Z " fill="#F6D3D1" transform="translate(497,489)"/>
<path d="M0 0 C-2 3 -2 3 -5.4765625 3.73046875 C-6.85780047 3.89648293 -8.24080122 4.04831396 -9.625 4.1875 C-10.68460937 4.3102832 -10.68460937 4.3102832 -11.765625 4.43554688 C-13.5090683 4.63580725 -15.25440086 4.81949401 -17 5 C-14.14624925 1.74897536 -12.20142418 0.42709469 -7.9375 -0.3125 C-6.65166016 -0.55419922 -6.65166016 -0.55419922 -5.33984375 -0.80078125 C-3 -1 -3 -1 0 0 Z " fill="#CD1824" transform="translate(497,285)"/>
<path d="M0 0 C0.66 0.33 1.32 0.66 2 1 C-3.28699873 6.67862827 -7.42344247 8.35791885 -15 9 C-13.58258617 6.16517233 -11.96633813 6.17417551 -9 5 C-6.64311907 3.67298242 -4.31104077 2.31162937 -1.98828125 0.92578125 C-1.33214844 0.62027344 -0.67601562 0.31476563 0 0 Z " fill="#D5464D" transform="translate(437,304)"/>
<path d="M0 0 C0.66 0.99 1.32 1.98 2 3 C-0.97 5.97 -3.94 8.94 -7 12 C-7.99 11.34 -8.98 10.68 -10 10 C-6.7 6.7 -3.4 3.4 0 0 Z " fill="#E54D41" transform="translate(616,492)"/>
<path d="M0 0 C5.56890517 0.47986031 10.67067568 1.29915181 16 3 C16 3.66 16 4.32 16 5 C13.9160597 4.88556397 11.83283507 4.75804453 9.75 4.625 C8.58984375 4.55539062 7.4296875 4.48578125 6.234375 4.4140625 C3.29305666 4.03751692 1.50050989 3.5225877 -1 2 C-0.67 1.34 -0.34 0.68 0 0 Z " fill="#CE1C29" transform="translate(652,285)"/>
<path d="M0 0 C-1.36983503 3.16115776 -1.9890638 3.9927092 -5 6 C-5.66 5.67 -6.32 5.34 -7 5 C-7.33 5.99 -7.66 6.98 -8 8 C-9.77734375 8.984375 -9.77734375 8.984375 -11.9375 9.75 C-12.64777344 10.01296875 -13.35804688 10.2759375 -14.08984375 10.546875 C-16 11 -16 11 -18 10 C-17.43152344 9.69707031 -16.86304688 9.39414062 -16.27734375 9.08203125 C-12.37803699 6.96638067 -8.63483891 4.82530299 -5.0625 2.1875 C-2 0 -2 0 0 0 Z " fill="#ED755F" transform="translate(641,670)"/>
<path d="M0 0 C7.425 0.99 7.425 0.99 15 2 C15.33 2.99 15.66 3.98 16 5 C9.49686791 5.46450943 5.5825192 4.32575612 0 1 C0 0.67 0 0.34 0 0 Z " fill="#D4222E" transform="translate(644,337)"/>
<path d="M0 0 C0.33 0 0.66 0 1 0 C1.66964286 7.76785714 1.66964286 7.76785714 -1.375 11.5 C-4 14 -4 14 -6 14 C-4.50829734 9.0276578 -2.39542583 4.58154261 0 0 Z " fill="#EA694B" transform="translate(799,678)"/>
<path d="M0 0 C1 2 1 2 0.375 4.4375 C-1.3190675 7.59462579 -2.84022203 8.38336941 -6 10 C-6.886875 10.5775 -7.77375 11.155 -8.6875 11.75 C-9.450625 12.1625 -10.21375 12.575 -11 13 C-11.66 12.67 -12.32 12.34 -13 12 C-12.31292969 11.46890625 -11.62585938 10.9378125 -10.91796875 10.390625 C-10.01691406 9.68421875 -9.11585938 8.9778125 -8.1875 8.25 C-7.29417969 7.55390625 -6.40085937 6.8578125 -5.48046875 6.140625 C-3.25694367 4.22174036 -1.6399079 2.41900036 0 0 Z " fill="#EC6D55" transform="translate(654,657)"/>
<path d="M0 0 C0.66 0 1.32 0 2 0 C1 3 1 3 -0.9375 4.25 C-5.39594903 5.34186507 -9.49715772 4.64701035 -14 4 C-11.41331224 1.41331224 -10.03108979 1.65770694 -6.4375 1.4375 C-2.90583192 1.50202788 -2.90583192 1.50202788 0 0 Z " fill="#CF1823" transform="translate(497,337)"/>
<path d="M0 0 C0.66 0.33 1.32 0.66 2 1 C1.21625 1.7425 0.4325 2.485 -0.375 3.25 C-2.56504531 5.54433318 -3.82731386 7.12158858 -5 10 C-6.65 10 -8.3 10 -10 10 C-7.59983652 5.05848696 -4.47726973 2.95668756 0 0 Z " fill="#D73A3E" transform="translate(403,323)"/>
<path d="M0 0 C4.97306516 0.49730652 8.63799813 1.55302334 13 4 C9.90521121 5.03159626 8.47368607 4.97482862 5.3125 4.5625 C4.50425781 4.46066406 3.69601562 4.35882813 2.86328125 4.25390625 C2.24839844 4.17011719 1.63351562 4.08632813 1 4 C0.67 2.68 0.34 1.36 0 0 Z " fill="#D41F2B" transform="translate(672,291)"/>
<path d="M0 0 C-2.61841871 2.61841871 -4.71587765 2.81850937 -8.3125 3.625 C-9.44300781 3.88539063 -10.57351563 4.14578125 -11.73828125 4.4140625 C-14.59220771 4.9267439 -17.11339907 5.11914675 -20 5 C-13.70648143 0.80432095 -7.46819926 -0.40735632 0 0 Z " fill="#F18753" transform="translate(660,868)"/>
<path d="M0 0 C-7.11309675 3.17819217 -14.22490717 6.00319323 -22 7 C-19.84217091 4.57112908 -18.16808742 3.48822071 -15.05859375 2.578125 C-14.31029297 2.35769531 -13.56199219 2.13726563 -12.79101562 1.91015625 C-12.01435547 1.69230469 -11.23769531 1.47445312 -10.4375 1.25 C-9.65697266 1.01667969 -8.87644531 0.78335938 -8.07226562 0.54296875 C-2.26254618 -1.13127309 -2.26254618 -1.13127309 0 0 Z " fill="#F18F66" transform="translate(659,812)"/>
<path d="M0 0 C6.28260706 -0.23268915 11.88019467 0.59545452 18 2 C18 2.33 18 2.66 18 3 C15.93757383 3.02717692 13.87504297 3.0464758 11.8125 3.0625 C10.66394531 3.07410156 9.51539063 3.08570313 8.33203125 3.09765625 C5.40699414 3.01192832 2.83683709 2.67849023 0 2 C0 1.34 0 0.68 0 0 Z " fill="#E56363" transform="translate(587,408)"/>
<path d="M0 0 C5.94 0.33 11.88 0.66 18 1 C18 1.33 18 1.66 18 2 C11.30324864 3.03026944 4.7685324 3.10152799 -2 3 C-1.34 2.67 -0.68 2.34 0 2 C0 1.34 0 0.68 0 0 Z " fill="#D02633" transform="translate(540,327)"/>
<path d="M0 0 C-0.7265625 1.91796875 -0.7265625 1.91796875 -2 4 C-4.0234375 4.86328125 -4.0234375 4.86328125 -6.375 5.3125 C-7.14585937 5.47363281 -7.91671875 5.63476562 -8.7109375 5.80078125 C-11.0798979 6.00695357 -12.74765803 5.71478432 -15 5 C-12.8765984 4.16260219 -10.7512272 3.33019717 -8.625 2.5 C-7.44164062 2.0359375 -6.25828125 1.571875 -5.0390625 1.09375 C-2 0 -2 0 0 0 Z " fill="#EE845A" transform="translate(674,805)"/>
<path d="M0 0 C0.66 0 1.32 0 2 0 C1.41892368 3.7602985 0.34800504 6.53035032 -1.5625 9.8125 C-2.01753906 10.60269531 -2.47257813 11.39289062 -2.94140625 12.20703125 C-3.29074219 12.79871094 -3.64007812 13.39039063 -4 14 C-4.33 14 -4.66 14 -5 14 C-5.37050452 9.67744722 -4.37932084 7.56898126 -2 4 C-1.31903578 2.67391178 -0.64669414 1.34313399 0 0 Z " fill="#EC7458" transform="translate(849,699)"/>
<path d="M0 0 C-1.38264837 2.86867231 -2.92148553 5.56024032 -4.625 8.25 C-5.07101562 8.95640625 -5.51703125 9.6628125 -5.9765625 10.390625 C-6.48316406 11.18726563 -6.48316406 11.18726563 -7 12 C-8.11889609 8.59825551 -7.9845447 7.95657797 -6.6875 4.3125 C-4.64855339 0.31012333 -4.38638661 0 0 0 Z " fill="#E14C46" transform="translate(359,445)"/>
<path d="M0 0 C0 3.80345877 -1.13786331 4.77701015 -3.5 7.6875 C-4.1496875 8.49574219 -4.799375 9.30398438 -5.46875 10.13671875 C-5.9740625 10.75160156 -6.479375 11.36648438 -7 12 C-8.32 11.67 -9.64 11.34 -11 11 C-7.37 7.37 -3.74 3.74 0 0 Z " fill="#E4584C" transform="translate(583,525)"/>
<path d="M0 0 C0.33 0.66 0.66 1.32 1 2 C-1.19566645 8.47143795 -1.19566645 8.47143795 -4.1875 10.4375 C-5.0846875 10.7159375 -5.0846875 10.7159375 -6 11 C-6 11.99 -6 12.98 -6 14 C-6.66 14 -7.32 14 -8 14 C-6.80100302 10.9168649 -5.52299523 7.93720508 -4 5 C-3.34 5 -2.68 5 -2 5 C-1.34 3.35 -0.68 1.7 0 0 Z " fill="#E25854" transform="translate(317,408)"/>
<path d="M0 0 C-3.25666031 1.73426971 -6.57452179 2.99026337 -10.0625 4.1875 C-11.10535156 4.55230469 -12.14820313 4.91710937 -13.22265625 5.29296875 C-16 6 -16 6 -19 5 C-13.46070359 1.06888642 -6.75572485 -0.43585322 0 0 Z " fill="#F0783F" transform="translate(684,860)"/>
<path d="M0 0 C-1.20381448 2.49361571 -2.45428722 4.68143083 -4 7 C-7.125 7.1875 -7.125 7.1875 -10 7 C-3.18421053 0 -3.18421053 0 0 0 Z " fill="#EF784D" transform="translate(721,778)"/>
<path d="M0 0 C0.66 0 1.32 0 2 0 C5.78090097 4.56858867 6.15487222 10.32272986 7 16 C3.8601549 14.43007745 3.57856654 11.77552998 2.375 8.5625 C1.92898438 7.38816406 1.48296875 6.21382812 1.0234375 5.00390625 C0 2 0 2 0 0 Z " fill="#EA6C4F" transform="translate(285,685)"/>
<path d="M0 0 C0.83789062 0.14308594 1.67578125 0.28617188 2.5390625 0.43359375 C6.1454499 1.02380388 9.75672076 1.55047935 13.375 2.0625 C14.62023437 2.23910156 15.86546875 2.41570313 17.1484375 2.59765625 C18.55996094 2.79681641 18.55996094 2.79681641 20 3 C20 3.33 20 3.66 20 4 C4.68831169 4.31899351 4.68831169 4.31899351 1 1.4375 C0.67 0.963125 0.34 0.48875 0 0 Z " fill="#F18A5D" transform="translate(524,822)"/>
<path d="M0 0 C0.33 0.99 0.66 1.98 1 3 C-0.49739583 4.20442708 -1.99479167 5.40885417 -3.4921875 6.61328125 C-5.25292107 8.12270545 -5.25292107 8.12270545 -7 11 C-7.99 11 -8.98 11 -10 11 C-10 10.34 -10 9.68 -10 9 C-8.3203125 7.34375 -8.3203125 7.34375 -6.125 5.5 C-4.00964496 3.71066742 -1.95980876 1.95980876 0 0 Z " fill="#EB654C" transform="translate(446,662)"/>
<path d="M0 0 C0 3 0 3 -1.6796875 5.04296875 C-2.76636719 6.10451172 -2.76636719 6.10451172 -3.875 7.1875 C-4.95394531 8.26064453 -4.95394531 8.26064453 -6.0546875 9.35546875 C-8 11 -8 11 -10 11 C-10.33 11.99 -10.66 12.98 -11 14 C-10.59102482 9.1009995 -8.60793633 7.3004017 -4.9375 4.1875 C-3.55884766 3.00220703 -3.55884766 3.00220703 -2.15234375 1.79296875 C-1.44207031 1.20128906 -0.73179687 0.60960937 0 0 Z " fill="#F8D9D1" transform="translate(345,643)"/>
<path d="M0 0 C2.31 0 4.62 0 7 0 C6 3 6 3 3 5 C1.68 5 0.36 5 -1 5 C-0.67 3.35 -0.34 1.7 0 0 Z " fill="#E34942" transform="translate(513,473)"/>
<path d="M0 0 C0 3.71946442 -0.88871542 4.40514236 -3.3125 7.125 C-4.23482422 8.18074219 -4.23482422 8.18074219 -5.17578125 9.2578125 C-7 11 -7 11 -10 12 C-8.52278578 8.54798361 -6.56205999 6.35038064 -3.875 3.75 C-3.15054687 3.04359375 -2.42609375 2.3371875 -1.6796875 1.609375 C-1.12539063 1.07828125 -0.57109375 0.5471875 0 0 Z " fill="#E24A4B" transform="translate(349,369)"/>
<path d="M0 0 C0.33 0.66 0.66 1.32 1 2 C-3.17737474 3.59138085 -6.53160785 4.21278058 -11 4 C-10.67 3.01 -10.34 2.02 -10 1 C-6.7 0.67 -3.4 0.34 0 0 Z " fill="#D31D29" transform="translate(518,332)"/>
<path d="M0 0 C0.66 0.33 1.32 0.66 2 1 C1.38125 1.0825 0.7625 1.165 0.125 1.25 C-2.17972859 1.79394438 -2.17972859 1.79394438 -3.0625 4 C-3.371875 4.66 -3.68125 5.32 -4 6 C-7 7 -7 7 -9.1875 6.0625 C-9.785625 5.711875 -10.38375 5.36125 -11 5 C-9.21289414 4.13633178 -7.4201535 3.28431406 -5.625 2.4375 C-4.62726562 1.96183594 -3.62953125 1.48617187 -2.6015625 0.99609375 C-1.74304688 0.66738281 -0.88453125 0.33867188 0 0 Z " fill="#EE7D65" transform="translate(620,681)"/>
<path d="M0 0 C0.99 0.33 1.98 0.66 3 1 C-0.3 4.3 -3.6 7.6 -7 11 C-7.33 10.01 -7.66 9.02 -8 8 C-7.34 8 -6.68 8 -6 8 C-5.34 6.68 -4.68 5.36 -4 4 C-3.34 4 -2.68 4 -2 4 C-2 3.34 -2 2.68 -2 2 C-1.34 2 -0.68 2 0 2 C0 1.34 0 0.68 0 0 Z " fill="#E95E45" transform="translate(521,662)"/>
<path d="M0 0 C0.66 0.33 1.32 0.66 2 1 C1.02501855 2.5027237 0.04490611 4.00211963 -0.9375 5.5 C-1.48277344 6.3353125 -2.02804687 7.170625 -2.58984375 8.03125 C-3.05519531 8.6809375 -3.52054687 9.330625 -4 10 C-4.33 10 -4.66 10 -5 10 C-5 7.69 -5 5.38 -5 3 C-3.68 3 -2.36 3 -1 3 C-0.67 2.01 -0.34 1.02 0 0 Z " fill="#DD3830" transform="translate(365,432)"/>
<path d="M0 0 C-0.33 0.66 -0.66 1.32 -1 2 C-4.16015625 2.4140625 -4.16015625 2.4140625 -8.0625 2.625 C-9.35285156 2.69976562 -10.64320313 2.77453125 -11.97265625 2.8515625 C-12.97167969 2.90054687 -13.97070312 2.94953125 -15 3 C-14 1 -14 1 -12.109375 0.33203125 C-4.3008954 -1.38738561 -4.3008954 -1.38738561 0 0 Z " fill="#E35755" transform="translate(537,412)"/>
<path d="M0 0 C0 2 0 2 -1.20703125 3.55078125 C-3.36220519 5.2927628 -4.97895327 5.67719409 -7.6875 6.1875 C-8.49574219 6.34605469 -9.30398438 6.50460937 -10.13671875 6.66796875 C-11.05904297 6.83232422 -11.05904297 6.83232422 -12 7 C-8.96533294 3.76116573 -4.61110165 0 0 0 Z " fill="#D64D52" transform="translate(417,316)"/>
<path d="M0 0 C0.33 0.99 0.66 1.98 1 3 C-0.98 3.99 -0.98 3.99 -3 5 C-3 6.32 -3 7.64 -3 9 C-4.65 9 -6.3 9 -8 9 C-7.04270084 7.87411986 -6.08412105 6.7493285 -5.125 5.625 C-4.59132813 4.99851562 -4.05765625 4.37203125 -3.5078125 3.7265625 C-2.38567993 2.44163349 -1.20628025 1.20628025 0 0 Z " fill="#E65345" transform="translate(567,541)"/>
<path d="M0 0 C0.33 0.66 0.66 1.32 1 2 C-0.54442235 5.63393495 -1.48567857 6.78822059 -5.1875 8.3125 C-6.5796875 8.6528125 -6.5796875 8.6528125 -8 9 C-7.04270084 7.87411986 -6.08412105 6.7493285 -5.125 5.625 C-4.59132813 4.99851562 -4.05765625 4.37203125 -3.5078125 3.7265625 C-2.38567993 2.44163349 -1.20628025 1.20628025 0 0 Z " fill="#E3655A" transform="translate(625,483)"/>
<path d="M0 0 C-5.17578125 3.22265625 -5.17578125 3.22265625 -7 4 C-7.99 3.67 -8.98 3.34 -10 3 C-10 2.01 -10 1.02 -10 0 C-6.33694766 -0.74926071 -3.57644848 -1.2380014 0 0 Z " fill="#D52026" transform="translate(466,352)"/>
<path d="M0 0 C0.8971875 0.309375 0.8971875 0.309375 1.8125 0.625 C-3.8125 5.625 -3.8125 5.625 -7.1875 5.625 C-5.69046729 2.17030914 -4.27938051 -0.73360809 0 0 Z " fill="#CE1923" transform="translate(444.1875,302.375)"/>
<path d="M0 0 C1.22589844 0.01353516 1.22589844 0.01353516 2.4765625 0.02734375 C3.41628906 0.04474609 3.41628906 0.04474609 4.375 0.0625 C4.045 0.7225 3.715 1.3825 3.375 2.0625 C0.43359375 2.6953125 0.43359375 2.6953125 -3.1875 3.1875 C-4.38503906 3.35507812 -5.58257812 3.52265625 -6.81640625 3.6953125 C-7.74324219 3.81648438 -8.67007812 3.93765625 -9.625 4.0625 C-6.41036203 0.70174212 -4.65285589 -0.06646937 0 0 Z " fill="#CE1E2C" transform="translate(467.625,292.9375)"/>
<path d="M0 0 C2.97 0.33 5.94 0.66 9 1 C9 1.66 9 2.32 9 3 C11.475 3.99 11.475 3.99 14 5 C13.01 5.495 13.01 5.495 12 6 C9.92803369 5.26821134 7.8891448 4.44100997 5.875 3.5625 C4.77929688 3.08941406 3.68359375 2.61632812 2.5546875 2.12890625 C1.71164062 1.75636719 0.86859375 1.38382813 0 1 C0 0.67 0 0.34 0 0 Z " fill="#F08E61" transform="translate(433,849)"/>
<path d="M0 0 C0.33 0 0.66 0 1 0 C1.19392201 5.52677733 0.7479503 9.75614911 -1 15 C-1.33 15 -1.66 15 -2 15 C-2.19392201 9.47322267 -1.7479503 5.24385089 0 0 Z " fill="#EC7166" transform="translate(274,508)"/>
<path d="M0 0 C6.75 -0.125 6.75 -0.125 9 1 C9 1.66 9 2.32 9 3 C6.03 3 3.06 3 0 3 C0 2.01 0 1.02 0 0 Z " fill="#DB201E" transform="translate(608,413)"/>
<path d="M0 0 C4.95 0.99 4.95 0.99 10 2 C10 3.32 10 4.64 10 6 C5.56909529 4.79157144 3.01887244 3.48331435 0 0 Z " fill="#EA6F50" transform="translate(477,720)"/>
<path d="M0 0 C0.33 0.99 0.66 1.98 1 3 C-0.98 3.99 -0.98 3.99 -3 5 C-3 5.99 -3 6.98 -3 8 C-4.65 8.33 -6.3 8.66 -8 9 C-7.04270084 7.87411986 -6.08412105 6.7493285 -5.125 5.625 C-4.59132813 4.99851562 -4.05765625 4.37203125 -3.5078125 3.7265625 C-2.38567993 2.44163349 -1.20628025 1.20628025 0 0 Z " fill="#E95F4C" transform="translate(516,592)"/>
<path d="M0 0 C0.33 0.66 0.66 1.32 1 2 C-0.24313463 5.72940389 -1.76985216 6.84656811 -5 9 C-5.99 8.67 -6.98 8.34 -8 8 C-5.36 5.36 -2.72 2.72 0 0 Z " fill="#E85949" transform="translate(544,564)"/>
<path d="M0 0 C0.66 0.33 1.32 0.66 2 1 C0.92492371 2.29854721 -0.16043736 3.58858361 -1.25 4.875 C-1.85328125 5.59429688 -2.4565625 6.31359375 -3.078125 7.0546875 C-4.97087634 8.97052118 -6.53657727 9.96449045 -9 11 C-8.34 9.68 -7.68 8.36 -7 7 C-6.34 7 -5.68 7 -5 7 C-5 6.34 -5 5.68 -5 5 C-3.37446717 3.29319053 -1.70884005 1.62339805 0 0 Z " fill="#F7D7D3" transform="translate(652,534)"/>
<path d="M0 0 C1.65 0 3.3 0 5 0 C3.68 2.64 2.36 5.28 1 8 C0.67 8 0.34 8 0 8 C0 5.36 0 2.72 0 0 Z " fill="#DE3A2E" transform="translate(341,467)"/>
<path d="M0 0 C0 4.35251187 -2.06165511 5.92809398 -5 9 C-7.171875 9.6796875 -7.171875 9.6796875 -9 10 C-8.06409496 8.8944811 -7.12620142 7.79064547 -6.1875 6.6875 C-5.66542969 6.07261719 -5.14335937 5.45773437 -4.60546875 4.82421875 C-3.12827531 3.14575321 -1.59960869 1.56117966 0 0 Z " fill="#EB6350" transform="translate(507,601)"/>
<path d="M0 0 C0.66 0.33 1.32 0.66 2 1 C0 4 0 4 -2.3828125 4.51171875 C-3.28773438 4.56972656 -4.19265625 4.62773437 -5.125 4.6875 C-6.03507812 4.75324219 -6.94515625 4.81898438 -7.8828125 4.88671875 C-8.93082031 4.94279297 -8.93082031 4.94279297 -10 5 C-6.76527494 2.84351662 -3.62848922 1.38542316 0 0 Z " fill="#D95961" transform="translate(457,295)"/>
<path d="M0 0 C0.99 0 1.98 0 3 0 C3 1.65 3 3.3 3 5 C1.35 5.33 -0.3 5.66 -2 6 C-1.125 1.125 -1.125 1.125 0 0 Z " fill="#E13A38" transform="translate(325,397)"/>
<path d="M0 0 C-0.99 0 -1.98 0 -3 0 C-3.33 0.99 -3.66 1.98 -4 3 C-6.64 3 -9.28 3 -12 3 C-4.82142857 -1.78571429 -4.82142857 -1.78571429 0 0 Z " fill="#DA4751" transform="translate(477,290)"/>
<path d="M0 0 C0.99 0 1.98 0 3 0 C1.50902342 3.7952131 -0.75700849 5.61042731 -4 8 C-2.25 2.25 -2.25 2.25 0 0 Z " fill="#E34134" transform="translate(586,522)"/>
<path d="M0 0 C2.64 0.33 5.28 0.66 8 1 C7.01 2.485 7.01 2.485 6 4 C3.83125748 3.49396008 2.00032373 3.00016187 0 2 C0 1.34 0 0.68 0 0 Z " fill="#DA0E1B" transform="translate(616,278)"/>
<path d="M0 0 C2.31 0.33 4.62 0.66 7 1 C7.66 2.65 8.32 4.3 9 6 C5.88802644 4.50164236 2.91164984 2.86022073 0 1 C0 0.67 0 0.34 0 0 Z " fill="#ED8458" transform="translate(391,823)"/>
<path d="M0 0 C0.33 1.32 0.66 2.64 1 4 C-0.65 5.32 -2.3 6.64 -4 8 C-4.33 7.01 -4.66 6.02 -5 5 C-3.35 3.35 -1.7 1.7 0 0 Z " fill="#EF754E" transform="translate(758,743)"/>
<path d="M0 0 C1.32 0 2.64 0 4 0 C4.33 2.97 4.66 5.94 5 9 C1.96130589 7.48065294 1.35589694 5.01995228 0 2 C0 1.34 0 0.68 0 0 Z " fill="#EB7558" transform="translate(292,703)"/>
<path d="M0 0 C0.33 0.66 0.66 1.32 1 2 C0.67 2.99 0.34 3.98 0 5 C0.66 5 1.32 5 2 5 C2.33 6.65 2.66 8.3 3 10 C0.4375 7.75 0.4375 7.75 -2 5 C-1.87165745 2.68983403 -1.63394255 1.63394255 0 0 Z " fill="#E76852" transform="translate(435,673)"/>
<path d="M0 0 C0 3 0 3 -1.53125 4.60546875 C-2.1809375 5.12753906 -2.830625 5.64960937 -3.5 6.1875 C-4.1496875 6.71730469 -4.799375 7.24710938 -5.46875 7.79296875 C-5.9740625 8.19128906 -6.479375 8.58960938 -7 9 C-7.33 8.34 -7.66 7.68 -8 7 C-5.36 4.69 -2.72 2.38 0 0 Z " fill="#F7D4D0" transform="translate(662,525)"/>
<path d="M0 0 C2.64 0.33 5.28 0.66 8 1 C8 1.99 8 2.98 8 4 C5.125 3.6875 5.125 3.6875 2 3 C1.34 2.01 0.68 1.02 0 0 Z " fill="#D7282D" transform="translate(680,351)"/>
<path d="M0 0 C3.375 0.25 3.375 0.25 7 1 C8.4375 3.0625 8.4375 3.0625 9 5 C5.54074837 3.7508258 2.85306797 2.32472205 0 0 Z " fill="#ED875B" transform="translate(410,836)"/>
<path d="M0 0 C-4.5 4 -4.5 4 -9 4 C-9 3.34 -9 2.68 -9 2 C-3.375 -1.125 -3.375 -1.125 0 0 Z " fill="#EC7456" transform="translate(658,725)"/>
<path d="M0 0 C-1.875 3.875 -1.875 3.875 -3 5 C-4.66617115 5.04063832 -6.33388095 5.042721 -8 5 C-3.16129032 0 -3.16129032 0 0 0 Z " fill="#E65351" transform="translate(479,434)"/>
<path d="M0 0 C0.86625 0.3403125 0.86625 0.3403125 1.75 0.6875 C0.1 2.0075 -1.55 3.3275 -3.25 4.6875 C-4.24 4.0275 -5.23 3.3675 -6.25 2.6875 C-2.80384615 -0.38942308 -2.80384615 -0.38942308 0 0 Z " fill="#E24A47" transform="translate(485.25,430.3125)"/>
<path d="M0 0 C2.97 0 5.94 0 9 0 C6.01193893 1.49403054 3.10343799 2.79310745 0 4 C0 2.68 0 1.36 0 0 Z " fill="#F07841" transform="translate(684,856)"/>
<path d="M0 0 C4.31392226 0.4793247 6.16569547 1.7457985 9 5 C2.25 3.375 2.25 3.375 0 0 Z " fill="#EE8568" transform="translate(489,727)"/>
<path d="M0 0 C-3.51187196 2.40814077 -5.72656908 3.36629408 -10 3 C-4.37755102 -1.45918367 -4.37755102 -1.45918367 0 0 Z " fill="#E75131" transform="translate(628,681)"/>
<path d="M0 0 C0.33 0.66 0.66 1.32 1 2 C-0.62339805 3.70884005 -2.29319053 5.37446717 -4 7 C-4.66 7 -5.32 7 -6 7 C-6 6.34 -6 5.68 -6 5 C-4.04072937 3.2856382 -2.04119788 1.61594832 0 0 Z " fill="#EC6B53" transform="translate(460,648)"/>
<path d="M0 0 C0.33 0.99 0.66 1.98 1 3 C-0.32 4.32 -1.64 5.64 -3 7 C-3.99 6.67 -4.98 6.34 -6 6 C-4.02 4.02 -2.04 2.04 0 0 Z " fill="#EA6048" transform="translate(472,636)"/>
<path d="M0 0 C0.33 0.99 0.66 1.98 1 3 C-0.32 4.32 -1.64 5.64 -3 7 C-3.99 6.67 -4.98 6.34 -6 6 C-4.02 4.02 -2.04 2.04 0 0 Z " fill="#EB6554" transform="translate(523,585)"/>
<path d="M0 0 C1.24675325 4.98701299 1.24675325 4.98701299 0 8 C-0.99 8.33 -1.98 8.66 -3 9 C-2.01 6.03 -1.02 3.06 0 0 Z " fill="#E65B51" transform="translate(288,462)"/>
<path d="M0 0 C1.32 0 2.64 0 4 0 C4 2.31 4 4.62 4 7 C1 5 1 5 0.3125 2.375 C0.209375 1.59125 0.10625 0.8075 0 0 Z " fill="#D82D26" transform="translate(783,441)"/>
<path d="M0 0 C0.66 0 1.32 0 2 0 C0.73058503 3.91402949 -0.51167694 5.79072873 -4 8 C-4 7.01 -4 6.02 -4 5 C-3.34 5 -2.68 5 -2 5 C-1.7834375 4.0409375 -1.7834375 4.0409375 -1.5625 3.0625 C-1 1 -1 1 0 0 Z " fill="#DD4643" transform="translate(371,424)"/>
<path d="M0 0 C2.31 0 4.62 0 7 0 C7.33 0.99 7.66 1.98 8 3 C5.6568787 2.74438677 3.32156597 2.40729228 1 2 C0.67 1.34 0.34 0.68 0 0 Z " fill="#D63A45" transform="translate(627,333)"/>
<path d="M0 0 C1.98 0 3.96 0 6 0 C5.67 0.99 5.34 1.98 5 3 C3.02 3 1.04 3 -1 3 C-0.67 2.01 -0.34 1.02 0 0 Z " fill="#D6121F" transform="translate(521,278)"/>
<path d="M0 0 C-3.44833324 2.05257931 -5.31661591 3.0632763 -9.375 2.6875 C-10.24125 2.460625 -11.1075 2.23375 -12 2 C-12 1.67 -12 1.34 -12 1 C-3.96428571 -1.27678571 -3.96428571 -1.27678571 0 0 Z " fill="#EE9067" transform="translate(633,820)"/>
<path d="M0 0 C2.97 0.495 2.97 0.495 6 1 C6 2.65 6 4.3 6 6 C3.97945196 4.35830472 1.97956942 2.69088222 0 1 C0 0.67 0 0.34 0 0 Z " fill="#EA6D40" transform="translate(360,797)"/>
<path d="M0 0 C1.32 0.33 2.64 0.66 4 1 C2.35 2.98 0.7 4.96 -1 7 C-1.66 6.67 -2.32 6.34 -3 6 C-2.67 5.01 -2.34 4.02 -2 3 C-1.34 3 -0.68 3 0 3 C0 2.01 0 1.02 0 0 Z " fill="#EE6A55" transform="translate(367,620)"/>
<path d="M0 0 C0.33 0.99 0.66 1.98 1 3 C-0.3125 4.5 -0.3125 4.5 -2 6 C-2.99 6 -3.98 6 -5 6 C-5 5.34 -5 4.68 -5 4 C-4.34 4 -3.68 4 -3 4 C-3 3.34 -3 2.68 -3 2 C-2.01 1.34 -1.02 0.68 0 0 Z " fill="#EA644E" transform="translate(490,618)"/>
<path d="M0 0 C0.33 0.99 0.66 1.98 1 3 C-0.65 4.32 -2.3 5.64 -4 7 C-4.66 6.67 -5.32 6.34 -6 6 C-4.02 4.02 -2.04 2.04 0 0 Z " fill="#EB5D47" transform="translate(497,611)"/>
<path d="M0 0 C0.86625 0.3403125 0.86625 0.3403125 1.75 0.6875 C-2.875 4.6875 -2.875 4.6875 -6.25 4.6875 C-6.25 4.0275 -6.25 3.3675 -6.25 2.6875 C-3.02697842 -0.42041367 -3.02697842 -0.42041367 0 0 Z " fill="#E54F46" transform="translate(780.25,527.3125)"/>
</svg>
